%TF.GenerationSoftware,KiCad,Pcbnew,7.0.1*%
%TF.CreationDate,2023-07-04T17:25:52-07:00*%
%TF.ProjectId,Y6502,59363530-322e-46b6-9963-61645f706362,rev?*%
%TF.SameCoordinates,Original*%
%TF.FileFunction,Drillmap*%
%TF.FilePolarity,Positive*%
%FSLAX45Y45*%
G04 Gerber Fmt 4.5, Leading zero omitted, Abs format (unit mm)*
G04 Created by KiCad (PCBNEW 7.0.1) date 2023-07-04 17:25:52*
%MOMM*%
%LPD*%
G01*
G04 APERTURE LIST*
%ADD10C,0.100000*%
%ADD11C,0.200000*%
%ADD12C,0.350000*%
G04 APERTURE END LIST*
D10*
X8280954Y-3279046D02*
G75*
G03*
X8280954Y-3279046I-160954J0D01*
G01*
X8280000Y-6400000D02*
X8140000Y-6080000D01*
X16240000Y-19480000D02*
X16240000Y-19600000D01*
X8360954Y-15160954D02*
G75*
G03*
X8360954Y-15160954I-160954J0D01*
G01*
X8280000Y-6400000D02*
X8280000Y-14100000D01*
X16540000Y-5700000D02*
X16240000Y-6400000D01*
X16240000Y-18040000D02*
X16240000Y-19480000D01*
X16600000Y-15000000D02*
X16600000Y-17520000D01*
X8280000Y-14100000D02*
X7920000Y-15000000D01*
X8360954Y-17239046D02*
G75*
G03*
X8360954Y-17239046I-160954J0D01*
G01*
X7880000Y-3740000D02*
X8140000Y-4140000D01*
X8281000Y-2068000D02*
X16241000Y-2068000D01*
X8280000Y-18040000D02*
X8280000Y-19600000D01*
X16500954Y-17237137D02*
G75*
G03*
X16500954Y-17237137I-160954J0D01*
G01*
X16500954Y-15159046D02*
G75*
G03*
X16500954Y-15159046I-160954J0D01*
G01*
X16340954Y-3919046D02*
G75*
G03*
X16340954Y-3919046I-160954J0D01*
G01*
X8280000Y-19600000D02*
X16240000Y-19600000D01*
X16241000Y-2068000D02*
X16540000Y-2700000D01*
X7920000Y-17520000D02*
X8280000Y-18040000D01*
X16240000Y-14100000D02*
X16600000Y-15000000D01*
X7920000Y-15000000D02*
X7920000Y-17520000D01*
X8140000Y-4140000D02*
X8140000Y-6080000D01*
X16240000Y-6400000D02*
X16240000Y-14100000D01*
X8281000Y-2068000D02*
X7880000Y-2700000D01*
X7880000Y-2700000D02*
X7880000Y-3740000D01*
X16540000Y-2700000D02*
X16540000Y-5700000D01*
X16600000Y-17520000D02*
X16240000Y-18040000D01*
D11*
D12*
X15185000Y-3902000D02*
X15535000Y-4252000D01*
X15535000Y-3902000D02*
X15185000Y-4252000D01*
X15185000Y-7768000D02*
X15535000Y-8118000D01*
X15535000Y-7768000D02*
X15185000Y-8118000D01*
D11*
X8122619Y-19917524D02*
X8122619Y-19717524D01*
X8122619Y-19717524D02*
X8170238Y-19717524D01*
X8170238Y-19717524D02*
X8198809Y-19727048D01*
X8198809Y-19727048D02*
X8217857Y-19746095D01*
X8217857Y-19746095D02*
X8227381Y-19765143D01*
X8227381Y-19765143D02*
X8236905Y-19803238D01*
X8236905Y-19803238D02*
X8236905Y-19831810D01*
X8236905Y-19831810D02*
X8227381Y-19869905D01*
X8227381Y-19869905D02*
X8217857Y-19888952D01*
X8217857Y-19888952D02*
X8198809Y-19908000D01*
X8198809Y-19908000D02*
X8170238Y-19917524D01*
X8170238Y-19917524D02*
X8122619Y-19917524D01*
X8322619Y-19917524D02*
X8322619Y-19784190D01*
X8322619Y-19822286D02*
X8332143Y-19803238D01*
X8332143Y-19803238D02*
X8341667Y-19793714D01*
X8341667Y-19793714D02*
X8360714Y-19784190D01*
X8360714Y-19784190D02*
X8379762Y-19784190D01*
X8446429Y-19917524D02*
X8446429Y-19784190D01*
X8446429Y-19717524D02*
X8436905Y-19727048D01*
X8436905Y-19727048D02*
X8446429Y-19736571D01*
X8446429Y-19736571D02*
X8455952Y-19727048D01*
X8455952Y-19727048D02*
X8446429Y-19717524D01*
X8446429Y-19717524D02*
X8446429Y-19736571D01*
X8570238Y-19917524D02*
X8551190Y-19908000D01*
X8551190Y-19908000D02*
X8541667Y-19888952D01*
X8541667Y-19888952D02*
X8541667Y-19717524D01*
X8675000Y-19917524D02*
X8655952Y-19908000D01*
X8655952Y-19908000D02*
X8646429Y-19888952D01*
X8646429Y-19888952D02*
X8646429Y-19717524D01*
X8903571Y-19917524D02*
X8903571Y-19717524D01*
X8903571Y-19717524D02*
X8970238Y-19860381D01*
X8970238Y-19860381D02*
X9036905Y-19717524D01*
X9036905Y-19717524D02*
X9036905Y-19917524D01*
X9217857Y-19917524D02*
X9217857Y-19812762D01*
X9217857Y-19812762D02*
X9208333Y-19793714D01*
X9208333Y-19793714D02*
X9189286Y-19784190D01*
X9189286Y-19784190D02*
X9151190Y-19784190D01*
X9151190Y-19784190D02*
X9132143Y-19793714D01*
X9217857Y-19908000D02*
X9198810Y-19917524D01*
X9198810Y-19917524D02*
X9151190Y-19917524D01*
X9151190Y-19917524D02*
X9132143Y-19908000D01*
X9132143Y-19908000D02*
X9122619Y-19888952D01*
X9122619Y-19888952D02*
X9122619Y-19869905D01*
X9122619Y-19869905D02*
X9132143Y-19850857D01*
X9132143Y-19850857D02*
X9151190Y-19841333D01*
X9151190Y-19841333D02*
X9198810Y-19841333D01*
X9198810Y-19841333D02*
X9217857Y-19831810D01*
X9313095Y-19784190D02*
X9313095Y-19984190D01*
X9313095Y-19793714D02*
X9332143Y-19784190D01*
X9332143Y-19784190D02*
X9370238Y-19784190D01*
X9370238Y-19784190D02*
X9389286Y-19793714D01*
X9389286Y-19793714D02*
X9398810Y-19803238D01*
X9398810Y-19803238D02*
X9408333Y-19822286D01*
X9408333Y-19822286D02*
X9408333Y-19879429D01*
X9408333Y-19879429D02*
X9398810Y-19898476D01*
X9398810Y-19898476D02*
X9389286Y-19908000D01*
X9389286Y-19908000D02*
X9370238Y-19917524D01*
X9370238Y-19917524D02*
X9332143Y-19917524D01*
X9332143Y-19917524D02*
X9313095Y-19908000D01*
X9494048Y-19898476D02*
X9503571Y-19908000D01*
X9503571Y-19908000D02*
X9494048Y-19917524D01*
X9494048Y-19917524D02*
X9484524Y-19908000D01*
X9484524Y-19908000D02*
X9494048Y-19898476D01*
X9494048Y-19898476D02*
X9494048Y-19917524D01*
X9494048Y-19793714D02*
X9503571Y-19803238D01*
X9503571Y-19803238D02*
X9494048Y-19812762D01*
X9494048Y-19812762D02*
X9484524Y-19803238D01*
X9484524Y-19803238D02*
X9494048Y-19793714D01*
X9494048Y-19793714D02*
X9494048Y-19812762D01*
X7675000Y-20145000D02*
X7875000Y-20345000D01*
X7875000Y-20145000D02*
X7675000Y-20345000D01*
X8103571Y-20137524D02*
X8227381Y-20137524D01*
X8227381Y-20137524D02*
X8160714Y-20213714D01*
X8160714Y-20213714D02*
X8189286Y-20213714D01*
X8189286Y-20213714D02*
X8208333Y-20223238D01*
X8208333Y-20223238D02*
X8217857Y-20232762D01*
X8217857Y-20232762D02*
X8227381Y-20251810D01*
X8227381Y-20251810D02*
X8227381Y-20299429D01*
X8227381Y-20299429D02*
X8217857Y-20318476D01*
X8217857Y-20318476D02*
X8208333Y-20328000D01*
X8208333Y-20328000D02*
X8189286Y-20337524D01*
X8189286Y-20337524D02*
X8132143Y-20337524D01*
X8132143Y-20337524D02*
X8113095Y-20328000D01*
X8113095Y-20328000D02*
X8103571Y-20318476D01*
X8313095Y-20318476D02*
X8322619Y-20328000D01*
X8322619Y-20328000D02*
X8313095Y-20337524D01*
X8313095Y-20337524D02*
X8303571Y-20328000D01*
X8303571Y-20328000D02*
X8313095Y-20318476D01*
X8313095Y-20318476D02*
X8313095Y-20337524D01*
X8503571Y-20137524D02*
X8408333Y-20137524D01*
X8408333Y-20137524D02*
X8398810Y-20232762D01*
X8398810Y-20232762D02*
X8408333Y-20223238D01*
X8408333Y-20223238D02*
X8427381Y-20213714D01*
X8427381Y-20213714D02*
X8475000Y-20213714D01*
X8475000Y-20213714D02*
X8494048Y-20223238D01*
X8494048Y-20223238D02*
X8503571Y-20232762D01*
X8503571Y-20232762D02*
X8513095Y-20251810D01*
X8513095Y-20251810D02*
X8513095Y-20299429D01*
X8513095Y-20299429D02*
X8503571Y-20318476D01*
X8503571Y-20318476D02*
X8494048Y-20328000D01*
X8494048Y-20328000D02*
X8475000Y-20337524D01*
X8475000Y-20337524D02*
X8427381Y-20337524D01*
X8427381Y-20337524D02*
X8408333Y-20328000D01*
X8408333Y-20328000D02*
X8398810Y-20318476D01*
X8636905Y-20137524D02*
X8655952Y-20137524D01*
X8655952Y-20137524D02*
X8675000Y-20147048D01*
X8675000Y-20147048D02*
X8684524Y-20156571D01*
X8684524Y-20156571D02*
X8694048Y-20175619D01*
X8694048Y-20175619D02*
X8703571Y-20213714D01*
X8703571Y-20213714D02*
X8703571Y-20261333D01*
X8703571Y-20261333D02*
X8694048Y-20299429D01*
X8694048Y-20299429D02*
X8684524Y-20318476D01*
X8684524Y-20318476D02*
X8675000Y-20328000D01*
X8675000Y-20328000D02*
X8655952Y-20337524D01*
X8655952Y-20337524D02*
X8636905Y-20337524D01*
X8636905Y-20337524D02*
X8617857Y-20328000D01*
X8617857Y-20328000D02*
X8608333Y-20318476D01*
X8608333Y-20318476D02*
X8598810Y-20299429D01*
X8598810Y-20299429D02*
X8589286Y-20261333D01*
X8589286Y-20261333D02*
X8589286Y-20213714D01*
X8589286Y-20213714D02*
X8598810Y-20175619D01*
X8598810Y-20175619D02*
X8608333Y-20156571D01*
X8608333Y-20156571D02*
X8617857Y-20147048D01*
X8617857Y-20147048D02*
X8636905Y-20137524D01*
X8827381Y-20137524D02*
X8846429Y-20137524D01*
X8846429Y-20137524D02*
X8865476Y-20147048D01*
X8865476Y-20147048D02*
X8875000Y-20156571D01*
X8875000Y-20156571D02*
X8884524Y-20175619D01*
X8884524Y-20175619D02*
X8894048Y-20213714D01*
X8894048Y-20213714D02*
X8894048Y-20261333D01*
X8894048Y-20261333D02*
X8884524Y-20299429D01*
X8884524Y-20299429D02*
X8875000Y-20318476D01*
X8875000Y-20318476D02*
X8865476Y-20328000D01*
X8865476Y-20328000D02*
X8846429Y-20337524D01*
X8846429Y-20337524D02*
X8827381Y-20337524D01*
X8827381Y-20337524D02*
X8808333Y-20328000D01*
X8808333Y-20328000D02*
X8798810Y-20318476D01*
X8798810Y-20318476D02*
X8789286Y-20299429D01*
X8789286Y-20299429D02*
X8779762Y-20261333D01*
X8779762Y-20261333D02*
X8779762Y-20213714D01*
X8779762Y-20213714D02*
X8789286Y-20175619D01*
X8789286Y-20175619D02*
X8798810Y-20156571D01*
X8798810Y-20156571D02*
X8808333Y-20147048D01*
X8808333Y-20147048D02*
X8827381Y-20137524D01*
X8979762Y-20337524D02*
X8979762Y-20204190D01*
X8979762Y-20223238D02*
X8989286Y-20213714D01*
X8989286Y-20213714D02*
X9008333Y-20204190D01*
X9008333Y-20204190D02*
X9036905Y-20204190D01*
X9036905Y-20204190D02*
X9055952Y-20213714D01*
X9055952Y-20213714D02*
X9065476Y-20232762D01*
X9065476Y-20232762D02*
X9065476Y-20337524D01*
X9065476Y-20232762D02*
X9075000Y-20213714D01*
X9075000Y-20213714D02*
X9094048Y-20204190D01*
X9094048Y-20204190D02*
X9122619Y-20204190D01*
X9122619Y-20204190D02*
X9141667Y-20213714D01*
X9141667Y-20213714D02*
X9151191Y-20232762D01*
X9151191Y-20232762D02*
X9151191Y-20337524D01*
X9246429Y-20337524D02*
X9246429Y-20204190D01*
X9246429Y-20223238D02*
X9255952Y-20213714D01*
X9255952Y-20213714D02*
X9275000Y-20204190D01*
X9275000Y-20204190D02*
X9303572Y-20204190D01*
X9303572Y-20204190D02*
X9322619Y-20213714D01*
X9322619Y-20213714D02*
X9332143Y-20232762D01*
X9332143Y-20232762D02*
X9332143Y-20337524D01*
X9332143Y-20232762D02*
X9341667Y-20213714D01*
X9341667Y-20213714D02*
X9360714Y-20204190D01*
X9360714Y-20204190D02*
X9389286Y-20204190D01*
X9389286Y-20204190D02*
X9408333Y-20213714D01*
X9408333Y-20213714D02*
X9417857Y-20232762D01*
X9417857Y-20232762D02*
X9417857Y-20337524D01*
X9808333Y-20128000D02*
X9636905Y-20385143D01*
X10065476Y-20137524D02*
X10084524Y-20137524D01*
X10084524Y-20137524D02*
X10103572Y-20147048D01*
X10103572Y-20147048D02*
X10113095Y-20156571D01*
X10113095Y-20156571D02*
X10122619Y-20175619D01*
X10122619Y-20175619D02*
X10132143Y-20213714D01*
X10132143Y-20213714D02*
X10132143Y-20261333D01*
X10132143Y-20261333D02*
X10122619Y-20299429D01*
X10122619Y-20299429D02*
X10113095Y-20318476D01*
X10113095Y-20318476D02*
X10103572Y-20328000D01*
X10103572Y-20328000D02*
X10084524Y-20337524D01*
X10084524Y-20337524D02*
X10065476Y-20337524D01*
X10065476Y-20337524D02*
X10046429Y-20328000D01*
X10046429Y-20328000D02*
X10036905Y-20318476D01*
X10036905Y-20318476D02*
X10027381Y-20299429D01*
X10027381Y-20299429D02*
X10017857Y-20261333D01*
X10017857Y-20261333D02*
X10017857Y-20213714D01*
X10017857Y-20213714D02*
X10027381Y-20175619D01*
X10027381Y-20175619D02*
X10036905Y-20156571D01*
X10036905Y-20156571D02*
X10046429Y-20147048D01*
X10046429Y-20147048D02*
X10065476Y-20137524D01*
X10217857Y-20318476D02*
X10227381Y-20328000D01*
X10227381Y-20328000D02*
X10217857Y-20337524D01*
X10217857Y-20337524D02*
X10208334Y-20328000D01*
X10208334Y-20328000D02*
X10217857Y-20318476D01*
X10217857Y-20318476D02*
X10217857Y-20337524D01*
X10417857Y-20337524D02*
X10303572Y-20337524D01*
X10360714Y-20337524D02*
X10360714Y-20137524D01*
X10360714Y-20137524D02*
X10341667Y-20166095D01*
X10341667Y-20166095D02*
X10322619Y-20185143D01*
X10322619Y-20185143D02*
X10303572Y-20194667D01*
X10484524Y-20137524D02*
X10608334Y-20137524D01*
X10608334Y-20137524D02*
X10541667Y-20213714D01*
X10541667Y-20213714D02*
X10570238Y-20213714D01*
X10570238Y-20213714D02*
X10589286Y-20223238D01*
X10589286Y-20223238D02*
X10598810Y-20232762D01*
X10598810Y-20232762D02*
X10608334Y-20251810D01*
X10608334Y-20251810D02*
X10608334Y-20299429D01*
X10608334Y-20299429D02*
X10598810Y-20318476D01*
X10598810Y-20318476D02*
X10589286Y-20328000D01*
X10589286Y-20328000D02*
X10570238Y-20337524D01*
X10570238Y-20337524D02*
X10513095Y-20337524D01*
X10513095Y-20337524D02*
X10494048Y-20328000D01*
X10494048Y-20328000D02*
X10484524Y-20318476D01*
X10675000Y-20137524D02*
X10808334Y-20137524D01*
X10808334Y-20137524D02*
X10722619Y-20337524D01*
X10913095Y-20223238D02*
X10894048Y-20213714D01*
X10894048Y-20213714D02*
X10884524Y-20204190D01*
X10884524Y-20204190D02*
X10875000Y-20185143D01*
X10875000Y-20185143D02*
X10875000Y-20175619D01*
X10875000Y-20175619D02*
X10884524Y-20156571D01*
X10884524Y-20156571D02*
X10894048Y-20147048D01*
X10894048Y-20147048D02*
X10913095Y-20137524D01*
X10913095Y-20137524D02*
X10951191Y-20137524D01*
X10951191Y-20137524D02*
X10970238Y-20147048D01*
X10970238Y-20147048D02*
X10979762Y-20156571D01*
X10979762Y-20156571D02*
X10989286Y-20175619D01*
X10989286Y-20175619D02*
X10989286Y-20185143D01*
X10989286Y-20185143D02*
X10979762Y-20204190D01*
X10979762Y-20204190D02*
X10970238Y-20213714D01*
X10970238Y-20213714D02*
X10951191Y-20223238D01*
X10951191Y-20223238D02*
X10913095Y-20223238D01*
X10913095Y-20223238D02*
X10894048Y-20232762D01*
X10894048Y-20232762D02*
X10884524Y-20242286D01*
X10884524Y-20242286D02*
X10875000Y-20261333D01*
X10875000Y-20261333D02*
X10875000Y-20299429D01*
X10875000Y-20299429D02*
X10884524Y-20318476D01*
X10884524Y-20318476D02*
X10894048Y-20328000D01*
X10894048Y-20328000D02*
X10913095Y-20337524D01*
X10913095Y-20337524D02*
X10951191Y-20337524D01*
X10951191Y-20337524D02*
X10970238Y-20328000D01*
X10970238Y-20328000D02*
X10979762Y-20318476D01*
X10979762Y-20318476D02*
X10989286Y-20299429D01*
X10989286Y-20299429D02*
X10989286Y-20261333D01*
X10989286Y-20261333D02*
X10979762Y-20242286D01*
X10979762Y-20242286D02*
X10970238Y-20232762D01*
X10970238Y-20232762D02*
X10951191Y-20223238D01*
X11065476Y-20137524D02*
X11065476Y-20175619D01*
X11141667Y-20137524D02*
X11141667Y-20175619D01*
X11436905Y-20413714D02*
X11427381Y-20404190D01*
X11427381Y-20404190D02*
X11408334Y-20375619D01*
X11408334Y-20375619D02*
X11398810Y-20356571D01*
X11398810Y-20356571D02*
X11389286Y-20328000D01*
X11389286Y-20328000D02*
X11379762Y-20280381D01*
X11379762Y-20280381D02*
X11379762Y-20242286D01*
X11379762Y-20242286D02*
X11389286Y-20194667D01*
X11389286Y-20194667D02*
X11398810Y-20166095D01*
X11398810Y-20166095D02*
X11408334Y-20147048D01*
X11408334Y-20147048D02*
X11427381Y-20118476D01*
X11427381Y-20118476D02*
X11436905Y-20108952D01*
X11503572Y-20156571D02*
X11513095Y-20147048D01*
X11513095Y-20147048D02*
X11532143Y-20137524D01*
X11532143Y-20137524D02*
X11579762Y-20137524D01*
X11579762Y-20137524D02*
X11598810Y-20147048D01*
X11598810Y-20147048D02*
X11608334Y-20156571D01*
X11608334Y-20156571D02*
X11617857Y-20175619D01*
X11617857Y-20175619D02*
X11617857Y-20194667D01*
X11617857Y-20194667D02*
X11608334Y-20223238D01*
X11608334Y-20223238D02*
X11494048Y-20337524D01*
X11494048Y-20337524D02*
X11617857Y-20337524D01*
X11855953Y-20337524D02*
X11855953Y-20137524D01*
X11941667Y-20337524D02*
X11941667Y-20232762D01*
X11941667Y-20232762D02*
X11932143Y-20213714D01*
X11932143Y-20213714D02*
X11913096Y-20204190D01*
X11913096Y-20204190D02*
X11884524Y-20204190D01*
X11884524Y-20204190D02*
X11865476Y-20213714D01*
X11865476Y-20213714D02*
X11855953Y-20223238D01*
X12065476Y-20337524D02*
X12046429Y-20328000D01*
X12046429Y-20328000D02*
X12036905Y-20318476D01*
X12036905Y-20318476D02*
X12027381Y-20299429D01*
X12027381Y-20299429D02*
X12027381Y-20242286D01*
X12027381Y-20242286D02*
X12036905Y-20223238D01*
X12036905Y-20223238D02*
X12046429Y-20213714D01*
X12046429Y-20213714D02*
X12065476Y-20204190D01*
X12065476Y-20204190D02*
X12094048Y-20204190D01*
X12094048Y-20204190D02*
X12113096Y-20213714D01*
X12113096Y-20213714D02*
X12122619Y-20223238D01*
X12122619Y-20223238D02*
X12132143Y-20242286D01*
X12132143Y-20242286D02*
X12132143Y-20299429D01*
X12132143Y-20299429D02*
X12122619Y-20318476D01*
X12122619Y-20318476D02*
X12113096Y-20328000D01*
X12113096Y-20328000D02*
X12094048Y-20337524D01*
X12094048Y-20337524D02*
X12065476Y-20337524D01*
X12246429Y-20337524D02*
X12227381Y-20328000D01*
X12227381Y-20328000D02*
X12217857Y-20308952D01*
X12217857Y-20308952D02*
X12217857Y-20137524D01*
X12398810Y-20328000D02*
X12379762Y-20337524D01*
X12379762Y-20337524D02*
X12341667Y-20337524D01*
X12341667Y-20337524D02*
X12322619Y-20328000D01*
X12322619Y-20328000D02*
X12313096Y-20308952D01*
X12313096Y-20308952D02*
X12313096Y-20232762D01*
X12313096Y-20232762D02*
X12322619Y-20213714D01*
X12322619Y-20213714D02*
X12341667Y-20204190D01*
X12341667Y-20204190D02*
X12379762Y-20204190D01*
X12379762Y-20204190D02*
X12398810Y-20213714D01*
X12398810Y-20213714D02*
X12408334Y-20232762D01*
X12408334Y-20232762D02*
X12408334Y-20251810D01*
X12408334Y-20251810D02*
X12313096Y-20270857D01*
X12484524Y-20328000D02*
X12503572Y-20337524D01*
X12503572Y-20337524D02*
X12541667Y-20337524D01*
X12541667Y-20337524D02*
X12560715Y-20328000D01*
X12560715Y-20328000D02*
X12570238Y-20308952D01*
X12570238Y-20308952D02*
X12570238Y-20299429D01*
X12570238Y-20299429D02*
X12560715Y-20280381D01*
X12560715Y-20280381D02*
X12541667Y-20270857D01*
X12541667Y-20270857D02*
X12513096Y-20270857D01*
X12513096Y-20270857D02*
X12494048Y-20261333D01*
X12494048Y-20261333D02*
X12484524Y-20242286D01*
X12484524Y-20242286D02*
X12484524Y-20232762D01*
X12484524Y-20232762D02*
X12494048Y-20213714D01*
X12494048Y-20213714D02*
X12513096Y-20204190D01*
X12513096Y-20204190D02*
X12541667Y-20204190D01*
X12541667Y-20204190D02*
X12560715Y-20213714D01*
X12636905Y-20413714D02*
X12646429Y-20404190D01*
X12646429Y-20404190D02*
X12665477Y-20375619D01*
X12665477Y-20375619D02*
X12675000Y-20356571D01*
X12675000Y-20356571D02*
X12684524Y-20328000D01*
X12684524Y-20328000D02*
X12694048Y-20280381D01*
X12694048Y-20280381D02*
X12694048Y-20242286D01*
X12694048Y-20242286D02*
X12684524Y-20194667D01*
X12684524Y-20194667D02*
X12675000Y-20166095D01*
X12675000Y-20166095D02*
X12665477Y-20147048D01*
X12665477Y-20147048D02*
X12646429Y-20118476D01*
X12646429Y-20118476D02*
X12636905Y-20108952D01*
X12998810Y-20413714D02*
X12989286Y-20404190D01*
X12989286Y-20404190D02*
X12970238Y-20375619D01*
X12970238Y-20375619D02*
X12960715Y-20356571D01*
X12960715Y-20356571D02*
X12951191Y-20328000D01*
X12951191Y-20328000D02*
X12941667Y-20280381D01*
X12941667Y-20280381D02*
X12941667Y-20242286D01*
X12941667Y-20242286D02*
X12951191Y-20194667D01*
X12951191Y-20194667D02*
X12960715Y-20166095D01*
X12960715Y-20166095D02*
X12970238Y-20147048D01*
X12970238Y-20147048D02*
X12989286Y-20118476D01*
X12989286Y-20118476D02*
X12998810Y-20108952D01*
X13075000Y-20204190D02*
X13075000Y-20337524D01*
X13075000Y-20223238D02*
X13084524Y-20213714D01*
X13084524Y-20213714D02*
X13103572Y-20204190D01*
X13103572Y-20204190D02*
X13132143Y-20204190D01*
X13132143Y-20204190D02*
X13151191Y-20213714D01*
X13151191Y-20213714D02*
X13160715Y-20232762D01*
X13160715Y-20232762D02*
X13160715Y-20337524D01*
X13284524Y-20337524D02*
X13265477Y-20328000D01*
X13265477Y-20328000D02*
X13255953Y-20318476D01*
X13255953Y-20318476D02*
X13246429Y-20299429D01*
X13246429Y-20299429D02*
X13246429Y-20242286D01*
X13246429Y-20242286D02*
X13255953Y-20223238D01*
X13255953Y-20223238D02*
X13265477Y-20213714D01*
X13265477Y-20213714D02*
X13284524Y-20204190D01*
X13284524Y-20204190D02*
X13313096Y-20204190D01*
X13313096Y-20204190D02*
X13332143Y-20213714D01*
X13332143Y-20213714D02*
X13341667Y-20223238D01*
X13341667Y-20223238D02*
X13351191Y-20242286D01*
X13351191Y-20242286D02*
X13351191Y-20299429D01*
X13351191Y-20299429D02*
X13341667Y-20318476D01*
X13341667Y-20318476D02*
X13332143Y-20328000D01*
X13332143Y-20328000D02*
X13313096Y-20337524D01*
X13313096Y-20337524D02*
X13284524Y-20337524D01*
X13408334Y-20204190D02*
X13484524Y-20204190D01*
X13436905Y-20137524D02*
X13436905Y-20308952D01*
X13436905Y-20308952D02*
X13446429Y-20328000D01*
X13446429Y-20328000D02*
X13465477Y-20337524D01*
X13465477Y-20337524D02*
X13484524Y-20337524D01*
X13703572Y-20204190D02*
X13703572Y-20404190D01*
X13703572Y-20213714D02*
X13722619Y-20204190D01*
X13722619Y-20204190D02*
X13760715Y-20204190D01*
X13760715Y-20204190D02*
X13779762Y-20213714D01*
X13779762Y-20213714D02*
X13789286Y-20223238D01*
X13789286Y-20223238D02*
X13798810Y-20242286D01*
X13798810Y-20242286D02*
X13798810Y-20299429D01*
X13798810Y-20299429D02*
X13789286Y-20318476D01*
X13789286Y-20318476D02*
X13779762Y-20328000D01*
X13779762Y-20328000D02*
X13760715Y-20337524D01*
X13760715Y-20337524D02*
X13722619Y-20337524D01*
X13722619Y-20337524D02*
X13703572Y-20328000D01*
X13913096Y-20337524D02*
X13894048Y-20328000D01*
X13894048Y-20328000D02*
X13884524Y-20308952D01*
X13884524Y-20308952D02*
X13884524Y-20137524D01*
X14075000Y-20337524D02*
X14075000Y-20232762D01*
X14075000Y-20232762D02*
X14065477Y-20213714D01*
X14065477Y-20213714D02*
X14046429Y-20204190D01*
X14046429Y-20204190D02*
X14008334Y-20204190D01*
X14008334Y-20204190D02*
X13989286Y-20213714D01*
X14075000Y-20328000D02*
X14055953Y-20337524D01*
X14055953Y-20337524D02*
X14008334Y-20337524D01*
X14008334Y-20337524D02*
X13989286Y-20328000D01*
X13989286Y-20328000D02*
X13979762Y-20308952D01*
X13979762Y-20308952D02*
X13979762Y-20289905D01*
X13979762Y-20289905D02*
X13989286Y-20270857D01*
X13989286Y-20270857D02*
X14008334Y-20261333D01*
X14008334Y-20261333D02*
X14055953Y-20261333D01*
X14055953Y-20261333D02*
X14075000Y-20251810D01*
X14141667Y-20204190D02*
X14217858Y-20204190D01*
X14170239Y-20137524D02*
X14170239Y-20308952D01*
X14170239Y-20308952D02*
X14179762Y-20328000D01*
X14179762Y-20328000D02*
X14198810Y-20337524D01*
X14198810Y-20337524D02*
X14217858Y-20337524D01*
X14360715Y-20328000D02*
X14341667Y-20337524D01*
X14341667Y-20337524D02*
X14303572Y-20337524D01*
X14303572Y-20337524D02*
X14284524Y-20328000D01*
X14284524Y-20328000D02*
X14275000Y-20308952D01*
X14275000Y-20308952D02*
X14275000Y-20232762D01*
X14275000Y-20232762D02*
X14284524Y-20213714D01*
X14284524Y-20213714D02*
X14303572Y-20204190D01*
X14303572Y-20204190D02*
X14341667Y-20204190D01*
X14341667Y-20204190D02*
X14360715Y-20213714D01*
X14360715Y-20213714D02*
X14370239Y-20232762D01*
X14370239Y-20232762D02*
X14370239Y-20251810D01*
X14370239Y-20251810D02*
X14275000Y-20270857D01*
X14541667Y-20337524D02*
X14541667Y-20137524D01*
X14541667Y-20328000D02*
X14522620Y-20337524D01*
X14522620Y-20337524D02*
X14484524Y-20337524D01*
X14484524Y-20337524D02*
X14465477Y-20328000D01*
X14465477Y-20328000D02*
X14455953Y-20318476D01*
X14455953Y-20318476D02*
X14446429Y-20299429D01*
X14446429Y-20299429D02*
X14446429Y-20242286D01*
X14446429Y-20242286D02*
X14455953Y-20223238D01*
X14455953Y-20223238D02*
X14465477Y-20213714D01*
X14465477Y-20213714D02*
X14484524Y-20204190D01*
X14484524Y-20204190D02*
X14522620Y-20204190D01*
X14522620Y-20204190D02*
X14541667Y-20213714D01*
X14617858Y-20413714D02*
X14627381Y-20404190D01*
X14627381Y-20404190D02*
X14646429Y-20375619D01*
X14646429Y-20375619D02*
X14655953Y-20356571D01*
X14655953Y-20356571D02*
X14665477Y-20328000D01*
X14665477Y-20328000D02*
X14675000Y-20280381D01*
X14675000Y-20280381D02*
X14675000Y-20242286D01*
X14675000Y-20242286D02*
X14665477Y-20194667D01*
X14665477Y-20194667D02*
X14655953Y-20166095D01*
X14655953Y-20166095D02*
X14646429Y-20147048D01*
X14646429Y-20147048D02*
X14627381Y-20118476D01*
X14627381Y-20118476D02*
X14617858Y-20108952D01*
M02*
