%TF.GenerationSoftware,KiCad,Pcbnew,7.0.1*%
%TF.CreationDate,2023-07-04T17:25:49-07:00*%
%TF.ProjectId,Y6502,59363530-322e-46b6-9963-61645f706362,rev?*%
%TF.SameCoordinates,Original*%
%TF.FileFunction,Profile,NP*%
%FSLAX46Y46*%
G04 Gerber Fmt 4.6, Leading zero omitted, Abs format (unit mm)*
G04 Created by KiCad (PCBNEW 7.0.1) date 2023-07-04 17:25:49*
%MOMM*%
%LPD*%
G01*
G04 APERTURE LIST*
%TA.AperFunction,Profile*%
%ADD10C,0.100000*%
%TD*%
G04 APERTURE END LIST*
D10*
X82809542Y-32790458D02*
G75*
G03*
X82809542Y-32790458I-1609542J0D01*
G01*
X82800000Y-64000000D02*
X81400000Y-60800000D01*
X162400000Y-194800000D02*
X162400000Y-196000000D01*
X83609542Y-151609542D02*
G75*
G03*
X83609542Y-151609542I-1609542J0D01*
G01*
X82800000Y-64000000D02*
X82800000Y-141000000D01*
X165400000Y-57000000D02*
X162400000Y-64000000D01*
X162400000Y-180400000D02*
X162400000Y-194800000D01*
X166000000Y-150000000D02*
X166000000Y-175200000D01*
X82800000Y-141000000D02*
X79200000Y-150000000D01*
X83609542Y-172390458D02*
G75*
G03*
X83609542Y-172390458I-1609542J0D01*
G01*
X78800000Y-37400000D02*
X81400000Y-41400000D01*
X82810000Y-20680000D02*
X162410000Y-20680000D01*
X82800000Y-180400000D02*
X82800000Y-196000000D01*
X165009542Y-172371374D02*
G75*
G03*
X165009542Y-172371374I-1609542J0D01*
G01*
X165009542Y-151590458D02*
G75*
G03*
X165009542Y-151590458I-1609542J0D01*
G01*
X163409542Y-39190458D02*
G75*
G03*
X163409542Y-39190458I-1609542J0D01*
G01*
X82800000Y-196000000D02*
X162400000Y-196000000D01*
X162410000Y-20680000D02*
X165400000Y-27000000D01*
X79200000Y-175200000D02*
X82800000Y-180400000D01*
X162400000Y-141000000D02*
X166000000Y-150000000D01*
X79200000Y-150000000D02*
X79200000Y-175200000D01*
X81400000Y-41400000D02*
X81400000Y-60800000D01*
X162400000Y-64000000D02*
X162400000Y-141000000D01*
X82810000Y-20680000D02*
X78800000Y-27000000D01*
X78800000Y-27000000D02*
X78800000Y-37400000D01*
X165400000Y-27000000D02*
X165400000Y-57000000D01*
X166000000Y-175200000D02*
X162400000Y-180400000D01*
M02*
