M48
; DRILL file {KiCad 7.0.1} date Tue Jul  4 17:25:52 2023
; FORMAT={-:-/ absolute / inch / decimal}
; #@! TF.CreationDate,2023-07-04T17:25:52-07:00
; #@! TF.GenerationSoftware,Kicad,Pcbnew,7.0.1
; #@! TF.FileFunction,Plated,1,2,PTH
FMAT,2
INCH
; #@! TA.AperFunction,Plated,PTH,ViaDrill
T1C0.0157
; #@! TA.AperFunction,Plated,PTH,ComponentDrill
T2C0.0315
; #@! TA.AperFunction,Plated,PTH,ComponentDrill
T3C0.0354
; #@! TA.AperFunction,Plated,PTH,ComponentDrill
T4C0.0394
; #@! TA.AperFunction,Plated,PTH,ComponentDrill
T5C0.0433
; #@! TA.AperFunction,Plated,PTH,ComponentDrill
T6C0.1260
%
G90
G05
T1
X3.3386Y-4.0394
X3.3465Y-4.1575
X3.4252Y-2.5039
X3.4331Y-2.0787
X3.4331Y-2.1496
X3.4409Y-2.8425
X3.4409Y-2.8898
X3.4488Y-2.6772
X3.4646Y-3.5827
X3.5034Y-3.5956
X3.5039Y-4.0551
X3.5039Y-4.126
X3.5118Y-2.8504
X3.5197Y-3.4724
X3.5288Y-4.7405
X3.5315Y-4.8509
X3.5354Y-2.8898
X3.5433Y-4.0551
X3.5433Y-4.126
X3.5622Y-5.5723
X3.5681Y-4.7385
X3.5697Y-5.6896
X3.5706Y-4.8462
X3.5737Y-3.4809
X3.5827Y-4.4964
X3.5906Y-5.8504
X3.5906Y-5.9449
X3.595Y-5.594
X3.5975Y-5.7175
X3.5984Y-4.874
X3.5984Y-4.0551
X3.5996Y-4.1322
X3.6063Y-4.748
X3.6252Y-3.4184
X3.6257Y-4.4845
X3.6309Y-3.6653
X3.633Y-3.5084
X3.6351Y-3.548
X3.6378Y-4.0551
X3.6378Y-4.1417
X3.6397Y-3.4575
X3.6535Y-2.1575
X3.6535Y-4.4567
X3.6614Y-2.1102
X3.6693Y-7.4646
X3.6929Y-2.0394
X3.7165Y-4.4882
X3.7244Y-3.8346
X3.7244Y-7.4882
X3.7286Y-4.8129
X3.7323Y-2.0709
X3.7402Y-3.5118
X3.7402Y-6.2126
X3.748Y-3.9685
X3.748Y-6.2598
X3.7548Y-5.7473
X3.7557Y-4.4995
X3.7559Y-2.6772
X3.7638Y-4.7953
X3.7795Y-6.2992
X3.7796Y-3.8741
X3.7924Y-4.5137
X3.7937Y-3.9575
X3.7953Y-3.5591
X3.7953Y-4.7402
X3.8162Y-5.6862
X3.8197Y-3.7283
X3.8583Y-7.4331
X3.874Y-4.4882
X3.8898Y-4.6535
X3.8947Y-5.5999
X3.8947Y-5.6535
X3.9134Y-2.4331
X3.9134Y-6.5039
X3.9142Y-6.5719
X3.9267Y-6.6293
X3.937Y-4.6772
X3.9449Y-4.4882
X3.9449Y-6.685
X3.9656Y-3.426
X3.9843Y-6.189
X3.9843Y-6.5984
X3.9921Y-3.4961
X4.0157Y-6.2677
X4.0236Y-6.4882
X4.0294Y-6.3207
X4.0447Y-4.7366
X4.0554Y-3.557
X4.0679Y-4.507
X4.0757Y-6.4185
X4.086Y-4.974
X4.0866Y-6.3701
X4.0945Y-3.3465
X4.0945Y-3.4173
X4.0945Y-4.7165
X4.0973Y-3.7845
X4.1102Y-7.3228
X4.126Y-3.8425
X4.126Y-3.9685
X4.1335Y-7.417
X4.1339Y-6.6378
X4.1417Y-1.4016
X4.1417Y-7.4902
X4.1496Y-1.5039
X4.1529Y-3.4516
X4.1608Y-3.2299
X4.1654Y-6.8425
X4.1732Y-6.6378
X4.1732Y-6.9055
X4.1811Y-1.4331
X4.189Y-1.501
X4.189Y-2.4252
X4.189Y-5.3386
X4.2126Y-3.7087
X4.2283Y-7.3986
X4.2283Y-7.4882
X4.2362Y-3.3307
X4.2362Y-3.8583
X4.2677Y-2.4252
X4.2992Y-1.6457
X4.3019Y-2.9085
X4.3066Y-3.2421
X4.3071Y-1.4961
X4.3071Y-3.8504
X4.3307Y-2.0236
X4.3307Y-2.0866
X4.3307Y-3.9606
X4.3307Y-6.5433
X4.3307Y-6.7953
X4.3307Y-7.3228
X4.3307Y-7.4882
X4.3386Y-3.7165
X4.3386Y-3.8819
X4.3436Y-6.7402
X4.3543Y-2.4488
X4.381Y-3.633
X4.3829Y-6.7402
X4.3858Y-7.3829
X4.3937Y-4.6693
X4.4013Y-7.4927
X4.4173Y-5.6929
X4.4173Y-6.5155
X4.4262Y-5.5346
X4.4262Y-5.5811
X4.4301Y-5.6203
X4.431Y-6.5824
X4.4331Y-1.4882
X4.4439Y-3.5591
X4.4836Y-3.8664
X4.491Y-7.0692
X4.4943Y-3.9437
X4.529Y-7.0795
X4.5292Y-7.3902
X4.5333Y-5.6829
X4.5417Y-4.6534
X4.5591Y-5.2205
X4.5591Y-6.5039
X4.5669Y-6.7008
X4.5683Y-3.1488
X4.572Y-5.3408
X4.5769Y-5.6871
X4.5827Y-3.4173
X4.5827Y-5.5984
X4.5827Y-7.0866
X4.5827Y-7.6142
X4.5856Y-3.5382
X4.5877Y-3.4989
X4.5915Y-6.1665
X4.5947Y-6.5373
X4.5972Y-7.4954
X4.6004Y-5.4241
X4.6051Y-5.499
X4.6052Y-5.7772
X4.6132Y-5.3445
X4.6168Y-5.8148
X4.619Y-5.8922
X4.6215Y-3.1559
X4.622Y-6.0236
X4.6235Y-6.612
X4.6268Y-5.9494
X4.6299Y-3.7087
X4.6304Y-6.0824
X4.6307Y-6.1693
X4.6339Y-3.6284
X4.6378Y-4.5512
X4.6378Y-6.5197
X4.6388Y-5.5404
X4.6451Y-3.1151
X4.6457Y-5.4803
X4.6535Y-5.4252
X4.6565Y-2.9449
X4.6605Y-3.6599
X4.6614Y-3.0394
X4.6614Y-6.811
X4.6645Y-5.5107
X4.6657Y-6.6275
X4.6762Y-6.4873
X4.6772Y-2.5039
X4.6772Y-4.1417
X4.6774Y-6.5899
X4.6938Y-5.4459
X4.7008Y-2.2913
X4.7008Y-3.5669
X4.701Y-5.24
X4.7154Y-6.2701
X4.7165Y-4.5906
X4.7229Y-4.8501
X4.723Y-5.6846
X4.7244Y-6.3622
X4.7284Y-5.423
X4.7391Y-7.4764
X4.7402Y-5.2441
X4.7402Y-6.0551
X4.7403Y-5.4934
X4.7559Y-6.7717
X4.7696Y-4.6044
X4.7746Y-4.4529
X4.7795Y-4.1811
X4.7795Y-6.9055
X4.7838Y-4.241
X4.7874Y-3.9213
X4.7874Y-7.0709
X4.7998Y-5.2493
X4.808Y-4.4946
X4.8239Y-6.5408
X4.8268Y-4.4331
X4.8326Y-4.1927
X4.8346Y-4.9055
X4.8346Y-7.0079
X4.8347Y-5.4961
X4.8369Y-4.2506
X4.8425Y-1.0236
X4.8568Y-6.5192
X4.8583Y-3.811
X4.8583Y-5.7244
X4.8583Y-5.874
X4.8583Y-6.8819
X4.875Y-4.2407
X4.877Y-7.0757
X4.8819Y-5.937
X4.8898Y-3.8583
X4.8898Y-6.3622
X4.9134Y-1.0945
X4.9134Y-2.7323
X4.9213Y-5.2677
X4.9213Y-7.0472
X4.9262Y-2.2598
X4.9262Y-5.1918
X4.9321Y-2.5385
X4.9341Y-3.2835
X4.937Y-1.9528
X4.937Y-2.0157
X4.937Y-2.6614
X4.937Y-4.7795
X4.937Y-4.9606
X4.9462Y-2.5843
X4.9469Y-2.7945
X4.9484Y-5.0175
X4.9493Y-6.7862
X4.9508Y-3.4488
X4.9528Y-2.2992
X4.9528Y-5.1339
X4.959Y-5.2789
X4.9606Y-3.2362
X4.9606Y-7.6299
X4.967Y-6.8234
X4.9685Y-5.2283
X4.9685Y-7.0315
X4.9734Y-6.0917
X4.9734Y-6.2126
X4.9843Y-6.3622
X4.9843Y-6.5748
X4.9921Y-4.8346
X4.9921Y-5.3937
X4.9952Y-2.4853
X5.0Y-6.4488
X5.0097Y-7.3974
X5.0106Y-6.6771
X5.0109Y-7.0363
X5.0127Y-4.003
X5.0127Y-4.434
X5.0152Y-7.3167
X5.0256Y-6.7439
X5.0472Y-7.252
X5.0482Y-7.0542
X5.0551Y-2.622
X5.0759Y-7.3908
X5.0787Y-2.4173
X5.0787Y-2.748
X5.0866Y-2.5906
X5.0945Y-6.8661
X5.1033Y-2.4804
X5.1326Y-4.7418
X5.1339Y-6.8819
X5.1355Y-5.4656
X5.1421Y-5.5514
X5.1501Y-6.2205
X5.1529Y-6.6012
X5.158Y-7.2628
X5.1624Y-6.6457
X5.1654Y-4.7008
X5.1654Y-6.748
X5.1693Y-6.8089
X5.1726Y-5.0688
X5.1732Y-1.5669
X5.1734Y-5.4548
X5.1777Y-6.2787
X5.178Y-5.5772
X5.1782Y-4.8234
X5.1811Y-6.1919
X5.1853Y-7.3908
X5.1857Y-4.7448
X5.188Y-6.491
X5.1992Y-5.4966
X5.2005Y-6.3108
X5.2064Y-5.0237
X5.2071Y-5.5507
X5.2205Y-3.3228
X5.2205Y-3.5118
X5.2205Y-4.6142
X5.2283Y-1.8268
X5.2284Y-4.8801
X5.23Y-4.7381
X5.2333Y-4.9702
X5.2353Y-6.3316
X5.2362Y-4.2677
X5.2362Y-6.4803
X5.2392Y-6.5591
X5.242Y-3.9683
X5.252Y-4.1496
X5.2595Y-4.7121
X5.2598Y-5.0079
X5.2598Y-7.2598
X5.2608Y-5.1706
X5.2608Y-5.2099
X5.2608Y-5.2677
X5.2608Y-5.3564
X5.2649Y-5.4284
X5.2706Y-4.8409
X5.2756Y-3.5748
X5.2756Y-6.3937
X5.2784Y-3.8583
X5.2835Y-4.2677
X5.2867Y-4.013
X5.2873Y-7.375
X5.2913Y-3.3307
X5.2913Y-4.7402
X5.2925Y-4.145
X5.2992Y-7.2992
X5.3228Y-4.4488
X5.3278Y-4.1276
X5.3307Y-4.252
X5.3386Y-4.5512
X5.3465Y-3.937
X5.3543Y-1.685
X5.3543Y-2.3307
X5.3549Y-2.6687
X5.3701Y-1.5354
X5.3713Y-1.6326
X5.378Y-4.1417
X5.378Y-4.5197
X5.378Y-6.1654
X5.3802Y-1.9358
X5.3829Y-2.0472
X5.3835Y-1.8946
X5.3858Y-2.1496
X5.3858Y-2.5669
X5.3937Y-2.189
X5.3937Y-6.1102
X5.3937Y-6.8268
X5.4016Y-5.5433
X5.4016Y-5.685
X5.4016Y-6.2677
X5.4023Y-3.5748
X5.405Y-1.5136
X5.4094Y-4.748
X5.4094Y-6.6929
X5.4188Y-1.9723
X5.4252Y-5.8661
X5.4288Y-3.5399
X5.4331Y-4.0709
X5.4331Y-5.6142
X5.4331Y-5.7717
X5.4331Y-5.9764
X5.4587Y-3.6129
X5.4646Y-1.126
X5.4724Y-5.2677
X5.4803Y-7.4567
X5.4961Y-3.6535
X5.4961Y-3.7638
X5.5Y-6.564
X5.5039Y-1.9449
X5.5039Y-6.4173
X5.5197Y-4.0787
X5.5591Y-2.4882
X5.5591Y-2.5591
X5.5827Y-6.5984
X5.6063Y-2.3228
X5.622Y-6.7559
X5.6378Y-3.5591
X5.6378Y-3.6929
X5.6535Y-7.4518
X5.6614Y-6.5984
X5.6693Y-1.4724
X5.6711Y-6.6412
X5.6911Y-7.4289
X5.6929Y-6.8583
X5.6939Y-6.7788
X5.7008Y-3.7008
X5.7087Y-3.5591
X5.7087Y-7.3937
X5.748Y-6.6063
X5.7595Y-6.6456
X5.7746Y-6.8183
X5.7795Y-6.8583
X5.7953Y-6.7795
X5.8081Y-6.5276
X5.8346Y-6.6063
X5.8425Y-2.6063
X5.874Y-2.4094
X5.8819Y-7.4961
X5.9764Y-1.4173
X5.9843Y-7.4488
X5.9921Y-5.7638
X6.0252Y-5.5797
X6.0866Y-4.9134
X6.126Y-3.9291
X6.2047Y-3.9291
X6.2412Y-4.8819
X6.2992Y-5.5827
X6.315Y-5.6299
X6.3307Y-5.6693
T2
X3.385Y-3.3898
X3.385Y-3.4898
X3.385Y-3.5898
X3.385Y-3.6898
X3.385Y-3.7898
X3.385Y-3.8898
X3.385Y-3.9898
X3.385Y-4.0898
X3.3854Y-2.2677
X3.3858Y-2.5866
X3.3858Y-2.6866
X3.3858Y-2.7866
X3.3858Y-2.8866
X3.3858Y-2.9866
X3.3858Y-3.0866
X3.3858Y-3.1866
X3.387Y-2.4315
X3.4289Y-6.9591
X3.4289Y-7.5591
X3.4447Y-4.2913
X3.4447Y-4.5913
X3.5289Y-6.9591
X3.5289Y-7.5591
X3.5447Y-4.2913
X3.5447Y-4.5913
X3.6289Y-6.9591
X3.6289Y-7.5591
X3.6319Y-1.7087
X3.6319Y-1.7913
X3.6319Y-1.8937
X3.6319Y-1.9764
X3.6447Y-4.2913
X3.6447Y-4.5913
X3.6604Y-4.8219
X3.6604Y-4.9219
X3.6604Y-5.0219
X3.6604Y-5.1219
X3.6604Y-5.2219
X3.6604Y-5.3219
X3.6604Y-5.4219
X3.6604Y-5.5219
X3.6604Y-5.6219
X3.6604Y-5.7219
X3.6604Y-5.8219
X3.6604Y-5.9219
X3.6604Y-6.0219
X3.6604Y-6.1219
X3.6604Y-6.2219
X3.6604Y-6.3219
X3.6604Y-6.4219
X3.6604Y-6.5219
X3.6604Y-6.6219
X3.6604Y-6.7219
X3.685Y-3.3898
X3.685Y-3.4898
X3.685Y-3.5898
X3.685Y-3.6898
X3.685Y-3.7898
X3.685Y-3.8898
X3.685Y-3.9898
X3.685Y-4.0898
X3.6854Y-2.2677
X3.6858Y-2.5866
X3.6858Y-2.6866
X3.6858Y-2.7866
X3.6858Y-2.8866
X3.6858Y-2.9866
X3.6858Y-3.0866
X3.6858Y-3.1866
X3.687Y-2.4315
X3.7289Y-6.9591
X3.7289Y-7.5591
X3.7421Y-1.7087
X3.7421Y-1.9764
X3.7447Y-4.2913
X3.7447Y-4.5913
X3.8289Y-6.9591
X3.8289Y-7.5591
X3.8447Y-4.2913
X3.8447Y-4.5913
X3.8622Y-6.5433
X3.8724Y-2.511
X3.8724Y-2.611
X3.8724Y-2.711
X3.8724Y-2.811
X3.8724Y-2.911
X3.8724Y-3.011
X3.8724Y-3.111
X3.8724Y-3.211
X3.8724Y-3.311
X3.8724Y-3.411
X3.8724Y-3.511
X3.8724Y-3.611
X3.8724Y-3.711
X3.8724Y-3.811
X3.9289Y-6.9591
X3.9289Y-7.5591
X3.9447Y-4.2913
X3.9447Y-4.5913
X3.9764Y-1.5748
X3.9764Y-1.7717
X3.9764Y-1.8976
X3.9764Y-2.0945
X4.0289Y-6.9591
X4.0289Y-7.5591
X4.0315Y-3.3457
X4.0315Y-3.6457
X4.0447Y-4.2913
X4.0447Y-4.5913
X4.0591Y-6.5433
X4.0846Y-4.0236
X4.1024Y-1.5955
X4.1024Y-1.6955
X4.1024Y-1.7955
X4.1024Y-1.8955
X4.1024Y-1.9955
X4.1024Y-2.0955
X4.1024Y-2.1955
X4.1024Y-2.2955
X4.1289Y-6.9591
X4.1289Y-7.5591
X4.1447Y-4.2913
X4.1447Y-4.5913
X4.1732Y-2.6417
X4.1732Y-2.8386
X4.2289Y-6.9591
X4.2289Y-7.5591
X4.2604Y-4.8219
X4.2604Y-4.9219
X4.2604Y-5.0219
X4.2604Y-5.1219
X4.2604Y-5.2219
X4.2604Y-5.3219
X4.2604Y-5.4219
X4.2604Y-5.5219
X4.2604Y-5.6219
X4.2604Y-5.7219
X4.2604Y-5.8219
X4.2604Y-5.9219
X4.2604Y-6.0219
X4.2604Y-6.1219
X4.2604Y-6.2219
X4.2604Y-6.3219
X4.2604Y-6.4219
X4.2604Y-6.5219
X4.2604Y-6.6219
X4.2604Y-6.7219
X4.2776Y-4.0236
X4.3289Y-6.9591
X4.3289Y-7.5591
X4.4024Y-1.5955
X4.4024Y-1.6955
X4.4024Y-1.7955
X4.4024Y-1.8955
X4.4024Y-1.9955
X4.4024Y-2.0955
X4.4024Y-2.1955
X4.4024Y-2.2955
X4.4289Y-6.9591
X4.4289Y-7.5591
X4.4646Y-4.2717
X4.4646Y-4.4685
X4.4724Y-2.511
X4.4724Y-2.611
X4.4724Y-2.711
X4.4724Y-2.811
X4.4724Y-2.911
X4.4724Y-3.011
X4.4724Y-3.111
X4.4724Y-3.211
X4.4724Y-3.311
X4.4724Y-3.411
X4.4724Y-3.511
X4.4724Y-3.611
X4.4724Y-3.711
X4.4724Y-3.811
X4.4951Y-4.8226
X4.4951Y-4.9226
X4.4951Y-5.0226
X4.4951Y-5.1226
X4.4951Y-5.2226
X4.4951Y-5.3226
X4.4951Y-5.4226
X4.4951Y-5.5226
X4.4951Y-5.6226
X4.4951Y-5.7226
X4.4951Y-5.8226
X4.4951Y-5.9226
X4.4951Y-6.0226
X4.4951Y-6.1226
X4.4951Y-6.2226
X4.4951Y-6.3226
X4.4951Y-6.4226
X4.4951Y-6.5226
X4.4951Y-6.6226
X4.4951Y-6.7226
X4.5197Y-1.5734
X4.5197Y-1.7703
X4.5197Y-1.9002
X4.5197Y-2.097
X4.5289Y-6.9591
X4.5289Y-7.5591
X4.5591Y-7.1457
X4.5591Y-7.3425
X4.6289Y-6.9591
X4.6289Y-7.5591
X4.685Y-3.9449
X4.7126Y-6.5354
X4.7289Y-6.9591
X4.7289Y-7.5591
X4.7953Y-4.9882
X4.7953Y-5.185
X4.7953Y-5.6224
X4.7953Y-5.9224
X4.8819Y-3.9449
X4.9094Y-6.5354
X4.9187Y-6.9596
X4.9187Y-7.5596
X4.9996Y-1.6142
X4.9996Y-1.7736
X4.9996Y-1.9331
X4.9996Y-2.0925
X4.9996Y-2.252
X4.9996Y-2.4114
X4.9996Y-2.5709
X4.9996Y-2.7303
X4.9996Y-2.8898
X4.9996Y-3.0492
X5.0187Y-6.9596
X5.0187Y-7.5596
X5.0472Y-3.2772
X5.0472Y-3.3772
X5.0472Y-3.4772
X5.0472Y-3.5772
X5.0472Y-3.6772
X5.0472Y-3.7772
X5.0472Y-3.8772
X5.0951Y-4.8226
X5.0951Y-4.9226
X5.0951Y-5.0226
X5.0951Y-5.1226
X5.0951Y-5.2226
X5.0951Y-5.3226
X5.0951Y-5.4226
X5.0951Y-5.5226
X5.0951Y-5.6226
X5.0951Y-5.7226
X5.0951Y-5.8226
X5.0951Y-5.9226
X5.0951Y-6.0226
X5.0951Y-6.1226
X5.0951Y-6.2226
X5.0951Y-6.3226
X5.0951Y-6.4226
X5.0951Y-6.5226
X5.0951Y-6.6226
X5.0951Y-6.7226
X5.1187Y-6.9596
X5.1187Y-7.5596
X5.1417Y-4.2201
X5.1417Y-4.5201
X5.1417Y-7.1496
X5.1417Y-7.3465
X5.2187Y-6.9596
X5.2187Y-7.5596
X5.2996Y-1.6142
X5.2996Y-1.7736
X5.2996Y-1.9331
X5.2996Y-2.0925
X5.2996Y-2.252
X5.2996Y-2.4114
X5.2996Y-2.5709
X5.2996Y-2.7303
X5.2996Y-2.8898
X5.2996Y-3.0492
X5.3187Y-6.9596
X5.3187Y-7.5596
X5.3297Y-4.8219
X5.3297Y-4.9219
X5.3297Y-5.0219
X5.3297Y-5.1219
X5.3297Y-5.2219
X5.3297Y-5.3219
X5.3297Y-5.4219
X5.3297Y-5.5219
X5.3297Y-5.6219
X5.3297Y-5.7219
X5.3297Y-5.8219
X5.3297Y-5.9219
X5.3297Y-6.0219
X5.3297Y-6.1219
X5.3297Y-6.2219
X5.3297Y-6.3219
X5.3297Y-6.4219
X5.3297Y-6.5219
X5.3297Y-6.6219
X5.3297Y-6.7219
X5.3472Y-3.2772
X5.3472Y-3.3772
X5.3472Y-3.4772
X5.3472Y-3.5772
X5.3472Y-3.6772
X5.3472Y-3.7772
X5.3472Y-3.8772
X5.4187Y-6.9596
X5.4187Y-7.5596
X5.4528Y-2.063
X5.4528Y-2.2283
X5.4638Y-4.165
X5.4638Y-4.465
X5.4803Y-2.6457
X5.4803Y-2.9457
X5.5187Y-6.9596
X5.5187Y-7.5596
X5.5551Y-6.5197
X5.5659Y-3.4638
X5.5659Y-3.7638
X5.5984Y-1.7758
X5.5984Y-1.8742
X5.6187Y-6.9596
X5.6187Y-7.5596
X5.6496Y-2.063
X5.6496Y-2.2283
X5.6659Y-3.4638
X5.6659Y-3.7638
X5.7087Y-2.6453
X5.7087Y-2.9453
X5.7187Y-6.9596
X5.7187Y-7.5596
X5.752Y-6.5197
X5.7638Y-2.0433
X5.7638Y-2.2402
X5.7659Y-3.4638
X5.7659Y-3.7638
X5.8187Y-6.9596
X5.8187Y-7.5596
X5.8659Y-3.4638
X5.8659Y-3.7638
X5.9187Y-6.9596
X5.9187Y-7.5596
X5.9297Y-4.8219
X5.9297Y-4.9219
X5.9297Y-5.0219
X5.9297Y-5.1219
X5.9297Y-5.2219
X5.9297Y-5.3219
X5.9297Y-5.4219
X5.9297Y-5.5219
X5.9297Y-5.6219
X5.9297Y-5.7219
X5.9297Y-5.8219
X5.9297Y-5.9219
X5.9297Y-6.0219
X5.9297Y-6.1219
X5.9297Y-6.2219
X5.9297Y-6.3219
X5.9297Y-6.4219
X5.9297Y-6.5219
X5.9297Y-6.6219
X5.9297Y-6.7219
X5.9659Y-3.4638
X5.9659Y-3.7638
X6.0187Y-6.9596
X6.0187Y-7.5596
X6.0638Y-4.165
X6.0638Y-4.465
X6.0659Y-3.4638
X6.0659Y-3.7638
X6.1187Y-6.9596
X6.1187Y-7.5596
X6.1659Y-3.4638
X6.1659Y-3.7638
X6.2187Y-6.9596
X6.2187Y-7.5596
T3
X4.0217Y-3.0236
X4.3217Y-3.0236
X5.4563Y-1.6142
X5.4803Y-2.4222
X5.4803Y-2.5222
X5.7087Y-2.4222
X5.7087Y-2.5222
X5.7563Y-1.6142
T4
X3.4583Y-4.81
X3.4583Y-4.91
X3.4583Y-5.01
X3.4583Y-5.11
X3.4583Y-5.21
X3.4583Y-5.31
X3.4583Y-5.41
X3.4583Y-5.51
X3.4583Y-5.61
X3.4583Y-5.71
X3.6892Y-1.3358
X3.7437Y-1.224
X3.7982Y-1.3358
X3.8528Y-1.224
X3.9073Y-1.3358
X3.9618Y-1.224
X4.0163Y-1.3358
X4.0709Y-1.224
X4.1254Y-1.3358
X4.7583Y-1.7953
X4.7583Y-1.8953
X4.7583Y-1.9953
X4.7583Y-2.0953
X4.7583Y-2.1953
X4.7583Y-2.2953
X4.7583Y-2.3953
X4.7583Y-2.4953
X4.7583Y-2.5953
X4.7583Y-2.6953
X4.7583Y-2.7953
X4.7583Y-2.8953
X4.7583Y-2.9953
X4.7583Y-3.0953
X4.7583Y-3.1953
X4.7583Y-3.2953
X4.7583Y-3.3953
X4.7583Y-3.4953
X4.7583Y-3.5953
X4.7583Y-3.6953
X4.8583Y-1.7953
X4.8583Y-1.8953
X4.8583Y-1.9953
X4.8583Y-2.0953
X4.8583Y-2.1953
X4.8583Y-2.2953
X4.8583Y-2.3953
X4.8583Y-2.4953
X4.8583Y-2.5953
X4.8583Y-2.6953
X4.8583Y-2.7953
X4.8583Y-2.8953
X4.8583Y-2.9953
X4.8583Y-3.0953
X4.8583Y-3.1953
X4.8583Y-3.2953
X4.8583Y-3.3953
X4.8583Y-3.4953
X4.8583Y-3.5953
X4.8583Y-3.6953
X5.5258Y-1.2425
X5.5709Y-1.1646
X5.5709Y-1.3205
X5.6159Y-1.2425
X5.661Y-1.1646
X5.661Y-1.3205
X5.7061Y-1.2425
X5.7512Y-1.1646
X5.7512Y-1.3205
X5.7963Y-1.2425
X5.8413Y-1.1646
X5.8413Y-1.3205
X5.8864Y-1.2425
X5.9315Y-1.1646
X5.9315Y-1.3205
X6.1659Y-4.8148
X6.1659Y-4.9148
X6.1659Y-5.0148
X6.1659Y-5.1148
X6.1659Y-5.2148
X6.1659Y-5.3148
X6.1659Y-5.4148
X6.1659Y-5.5148
X6.1659Y-5.6148
X6.1659Y-5.7148
X6.1659Y-5.8785
X6.1659Y-5.9785
X6.1659Y-6.0785
X6.1659Y-6.1785
X6.1659Y-6.2785
X6.1659Y-6.3785
X6.1659Y-6.4785
X6.1659Y-6.5785
X6.1659Y-6.6785
X6.1659Y-6.7785
T5
X4.6673Y-4.2815
X4.6673Y-4.4587
X4.9232Y-4.2815
X4.9232Y-4.4587
X5.9472Y-2.261
X5.9472Y-2.4713
X6.0472Y-2.261
X6.0472Y-2.4713
X6.1472Y-2.261
X6.1472Y-2.4713
T6
X3.4152Y-1.2799
X4.3994Y-1.2799
X5.2486Y-1.2646
X6.2329Y-1.2646
T4
G00X3.4882Y-1.8031
M15
G01X3.4882Y-1.8819
M16
G05
G00X3.5492Y-1.5728
M15
G01X3.4902Y-1.5728
M16
G05
G00X3.5492Y-2.1122
M15
G01X3.4902Y-2.1122
M16
G05
G00X4.7579Y-0.8917
M15
G01X4.8602Y-0.8917
M16
G05
G00X4.7657Y-1.1398
M15
G01X4.8524Y-1.1398
M16
G05
G00X4.998Y-0.9626
M15
G01X4.998Y-1.0492
M16
G05
T0
M30
